<svg viewBox="0 0 24 24" xmlns="http://www.w3.org/2000/svg" fill="none" stroke="currentColor" stroke-width="2" stroke-linecap="round" stroke-linejoin="round">
  <path d="M9.5 2C8.7 2 7.95 2.3 7.4 2.9C6.85 3.5 6.5 4.25 6.5 5C6.5 5.75 6.85 6.5 7.4 7.1C6.6 7.5 6 8.2 6 9C6 10.1 6.9 11 8 11C8.6 11 9.15 10.75 9.5 10.35C9.85 10.75 10.4 11 11 11C12.1 11 13 10.1 13 9C13 8.2 12.4 7.5 11.6 7.1C12.15 6.5 12.5 5.75 12.5 5C12.5 4.25 12.15 3.5 11.6 2.9C11.05 2.3 10.3 2 9.5 2Z"/>
  <path d="M14.5 6C15.3 6 16.05 6.3 16.6 6.9C17.15 7.5 17.5 8.25 17.5 9C17.5 9.75 17.15 10.5 16.6 11.1C17.4 11.5 18 12.2 18 13C18 14.1 17.1 15 16 15C15.4 15 14.85 14.75 14.5 14.35C14.15 14.75 13.6 15 13 15C11.9 15 11 14.1 11 13C11 12.2 11.6 11.5 12.4 11.1C11.85 10.5 11.5 9.75 11.5 9C11.5 8.25 11.85 7.5 12.4 6.9C12.95 6.3 13.7 6 14.5 6Z"/>
  <path d="M7 14C6.2 14 5.45 14.3 4.9 14.9C4.35 15.5 4 16.25 4 17C4 17.75 4.35 18.5 4.9 19.1C5.45 19.7 6.2 20 7 20C7.8 20 8.55 19.7 9.1 19.1C9.65 18.5 10 17.75 10 17C10 16.25 9.65 15.5 9.1 14.9C8.55 14.3 7.8 14 7 14Z"/>
  <path d="M17 14C16.2 14 15.45 14.3 14.9 14.9C14.35 15.5 14 16.25 14 17C14 17.75 14.35 18.5 14.9 19.1C15.45 19.7 16.2 20 17 20C17.8 20 18.55 19.7 19.1 19.1C19.65 18.5 20 17.75 20 17C20 16.25 19.65 15.5 19.1 14.9C18.55 14.3 17.8 14 17 14Z"/>
  <!-- Neural connections -->
  <line x1="9.5" y1="8" x2="14.5" y2="8" stroke="currentColor" stroke-width="1" opacity="0.6"/>
  <line x1="9" y1="10" x2="7" y2="14" stroke="currentColor" stroke-width="1" opacity="0.6"/>
  <line x1="15" y1="10" x2="17" y2="14" stroke="currentColor" stroke-width="1" opacity="0.6"/>
  <line x1="10" y1="17" x2="14" y2="17" stroke="currentColor" stroke-width="1" opacity="0.6"/>
</svg>