<svg viewBox="0 0 24 24" xmlns="http://www.w3.org/2000/svg" fill="none" stroke="currentColor" stroke-width="2" stroke-linecap="round" stroke-linejoin="round">
  <polyline points="23,4 23,10 17,10"/>
  <polyline points="1,20 1,14 7,14"/>
  <path d="M20.49 9C19.9828 7.56678 19.1209 6.28591 17.9845 5.27548C16.848 4.26505 15.4745 3.55977 13.9917 3.22426C12.5089 2.88875 10.9653 2.93434 9.50481 3.35677C8.04437 3.7792 6.71475 4.56471 5.64 5.64L1 10M23 14L18.36 18.36C17.2853 19.4353 15.9556 20.2208 14.4952 20.6432C13.0347 21.0657 11.4911 21.1112 10.0083 20.7757C8.52547 20.4402 7.15201 19.735 6.01551 18.7245C4.87902 17.7141 4.01717 16.4332 3.51 15"/>
</svg>