<svg viewBox="0 0 24 24" xmlns="http://www.w3.org/2000/svg" fill="none" stroke="currentColor" stroke-width="2" stroke-linecap="round" stroke-linejoin="round">
  <path d="M12 1C13.0609 1 14.0783 1.42143 14.8284 2.17157C15.5786 2.92172 16 3.93913 16 5V11C16 12.0609 15.5786 13.0783 14.8284 13.8284C14.0783 14.5786 13.0609 15 12 15C10.9391 15 9.92172 14.5786 9.17157 13.8284C8.42143 13.0783 8 12.0609 8 11V5C8 3.93913 8.42143 2.92172 9.17157 2.17157C9.92172 1.42143 10.9391 1 12 1Z"/>
  <path d="M19 10V11C19 13.1217 18.1571 15.1566 16.6569 16.6569C15.1566 18.1571 13.1217 19 11 19H13C13 19 11 19 11 19C8.87827 19 6.84344 18.1571 5.34315 16.6569C3.84285 15.1566 3 13.1217 3 11V10"/>
  <line x1="12" y1="19" x2="12" y2="23"/>
  <line x1="8" y1="23" x2="16" y2="23"/>
</svg>