<svg viewBox="0 0 24 24" xmlns="http://www.w3.org/2000/svg" fill="none" stroke="currentColor" stroke-width="2" stroke-linecap="round" stroke-linejoin="round">
  <path d="M10.29 3.86L1.82 18C1.64423 18.3024 1.55837 18.6453 1.57106 18.9928C1.58375 19.3403 1.69461 19.6779 1.89335 19.9669C2.0921 20.2559 2.37023 20.4848 2.69585 20.6281C3.02148 20.7714 3.38158 20.8239 3.73 20.78H20.27C20.6184 20.8239 20.9785 20.7714 21.3041 20.6281C21.6298 20.4848 21.9079 20.2559 22.1067 19.9669C22.3054 19.6779 22.4162 19.3403 22.4289 18.9928C22.4416 18.6453 22.3558 18.3024 22.18 18L13.71 3.86C13.5318 3.56611 13.2807 3.32312 12.9812 3.15448C12.6817 2.98585 12.3438 2.89725 12 2.89725C11.6562 2.89725 11.3183 2.98585 11.0188 3.15448C10.7193 3.32312 10.4682 3.56611 10.29 3.86V3.86Z"/>
  <line x1="12" y1="9" x2="12" y2="13"/>
  <point x="12" y="17"/>
</svg>