<svg viewBox="0 0 32 32" xmlns="http://www.w3.org/2000/svg">
  <defs>
    <linearGradient id="faviconGradient" x1="0%" y1="0%" x2="100%" y2="100%">
      <stop offset="0%" style="stop-color:#00ff41;stop-opacity:1" />
      <stop offset="50%" style="stop-color:#667eea;stop-opacity:1" />
      <stop offset="100%" style="stop-color:#764ba2;stop-opacity:1" />
    </linearGradient>
  </defs>
  
  <!-- Brain shape optimized for small sizes -->
  <path d="M16 4C20 4 24 7 24 12C25.5 12 27 13.5 27 16C27 18.5 25.5 20 24 20C24 23 20 26 16 26C12 26 8 23 8 20C6.5 20 5 18.5 5 16C5 13.5 6.5 12 8 12C8 7 12 4 16 4Z" 
        fill="url(#faviconGradient)"/>
  
  <!-- Simplified neural nodes -->
  <circle cx="12" cy="10" r="1.5" fill="#ffffff" opacity="0.9"/>
  <circle cx="20" cy="10" r="1.5" fill="#ffffff" opacity="0.9"/>
  <circle cx="16" cy="16" r="1.5" fill="#ffffff" opacity="0.9"/>
  <circle cx="11" cy="20" r="1.5" fill="#ffffff" opacity="0.9"/>
  <circle cx="21" cy="20" r="1.5" fill="#ffffff" opacity="0.9"/>
  
  <!-- Simple connections -->
  <line x1="12" y1="10" x2="20" y2="10" stroke="#ffffff" stroke-width="0.8" opacity="0.7"/>
  <line x1="16" y1="10" x2="16" y2="16" stroke="#ffffff" stroke-width="0.8" opacity="0.7"/>
  <line x1="16" y1="16" x2="11" y2="20" stroke="#ffffff" stroke-width="0.8" opacity="0.7"/>
  <line x1="16" y1="16" x2="21" y2="20" stroke="#ffffff" stroke-width="0.8" opacity="0.7"/>
</svg>